# xmcd
#
# Track frame offsets: 
#        150
#        31190
#        55883
#        85701
#        111637
#        128524
#        153189
#        177612
#        202412
#        222861
#        242653
#        266346
#        293821
#        310686
#
# Disc length: 4329 seconds
#
# Revision: 5
# Processed by: cddbd v1.5.2PL0 Copyright (c) Steve Scherf et al.
# Submitted via: ExactAudioCopyFreeDBPlugin 1.0
#
DISCID=c610e70e
DTITLE=Dżem - The Singles
DYEAR=1992
DGENRE=Blues
TTITLE0=autsajder
TTITLE1=whisky
TTITLE2=list do M.
TTITLE3=sen o victorii
TTITLE4=Boze daj dom
TTITLE5=naiwne pytania
TTITLE6=czerwony jak cegla
TTITLE7=skazany na bluesa
TTITLE8=jak malowany ptak
TTITLE9=dzien w ktorym peklo niebo
TTITLE10=mala aleja roz
TTITLE11=Paw
TTITLE12=wokol sami lunatycy
TTITLE13=czlowieku co sie z Toba dzieje
EXTD=
EXTT0=
EXTT1=
EXTT2=
EXTT3=
EXTT4=
EXTT5=
EXTT6=
EXTT7=
EXTT8=
EXTT9=
EXTT10=
EXTT11=
EXTT12=
EXTT13=
PLAYORDER=
